<svg width="317" height="73" viewBox="0 0 317 73" fill="none" xmlns="http://www.w3.org/2000/svg">
<g filter="url(#filter0_d_50_2)">
<path d="M137.008 28.6543L134.041 31.4849C132.023 29.3556 129.752 28.291 127.229 28.291C125.1 28.291 123.304 29.0176 121.841 30.4707C120.388 31.9238 119.661 33.715 119.661 35.8442C119.661 37.3276 119.984 38.6445 120.63 39.7949C121.276 40.9453 122.189 41.8485 123.37 42.5044C124.55 43.1603 125.862 43.4883 127.305 43.4883C128.536 43.4883 129.661 43.2612 130.681 42.8071C131.7 42.3429 132.82 41.5054 134.041 40.2944L136.917 43.2915C135.272 44.896 133.718 46.0111 132.255 46.6367C130.792 47.2523 129.122 47.5601 127.245 47.5601C123.783 47.5601 120.948 46.4652 118.738 44.2754C116.538 42.0755 115.438 39.2601 115.438 35.8291C115.438 33.609 115.938 31.6362 116.937 29.9106C117.946 28.1851 119.384 26.7975 121.25 25.748C123.127 24.6986 125.146 24.1738 127.305 24.1738C129.142 24.1738 130.908 24.5623 132.603 25.3394C134.308 26.1164 135.777 27.2214 137.008 28.6543ZM155.746 24.1738C158.895 24.1738 161.599 25.3141 163.86 27.5947C166.13 29.8753 167.266 32.6554 167.266 35.9351C167.266 39.1844 166.145 41.9342 163.905 44.1846C161.675 46.4349 158.966 47.5601 155.777 47.5601C152.437 47.5601 149.662 46.4046 147.452 44.0938C145.242 41.7829 144.137 39.0381 144.137 35.8594C144.137 33.7301 144.651 31.7725 145.681 29.9863C146.71 28.2002 148.123 26.7874 149.919 25.748C151.725 24.6986 153.668 24.1738 155.746 24.1738ZM155.701 28.3213C153.642 28.3213 151.912 29.0378 150.509 30.4707C149.106 31.9036 148.405 33.7251 148.405 35.9351C148.405 38.3973 149.288 40.3449 151.054 41.7778C152.426 42.8979 154.001 43.458 155.777 43.458C157.785 43.458 159.495 42.7314 160.908 41.2783C162.321 39.8252 163.027 38.034 163.027 35.9048C163.027 33.7856 162.316 31.9945 160.893 30.5312C159.47 29.0579 157.739 28.3213 155.701 28.3213ZM175.772 24.7339H180.797C184.036 24.7339 186.443 25.1375 188.017 25.9448C189.592 26.742 190.888 28.0438 191.907 29.8501C192.927 31.6564 193.436 33.7655 193.436 36.1772C193.436 37.8927 193.149 39.472 192.573 40.915C192.008 42.348 191.221 43.5387 190.212 44.4873C189.213 45.4359 188.128 46.0918 186.958 46.4551C185.787 46.8184 183.759 47 180.873 47H175.772V24.7339ZM179.995 28.8208V42.8525H181.963C183.9 42.8525 185.303 42.6305 186.171 42.1865C187.049 41.7425 187.765 40.9958 188.32 39.9463C188.875 38.8968 189.153 37.6051 189.153 36.0713C189.153 33.71 188.492 31.8784 187.17 30.5767C185.979 29.4061 184.067 28.8208 181.433 28.8208H179.995ZM201.973 24.7339H214.128V28.8813H206.181V32.9077H214.128V36.9795H206.181V42.8374H214.128V47H201.973V24.7339ZM241.691 43.7456L245.566 48.7559H240.541L238.573 46.228C236.948 47.116 235.137 47.5601 233.139 47.5601C229.799 47.5601 227.023 46.4097 224.813 44.1089C222.604 41.798 221.499 39.0482 221.499 35.8594C221.499 33.7301 222.013 31.7775 223.042 30.0015C224.072 28.2153 225.485 26.7975 227.281 25.748C229.087 24.6986 231.025 24.1738 233.093 24.1738C236.252 24.1738 238.961 25.3141 241.222 27.5947C243.492 29.8753 244.627 32.6554 244.627 35.9351C244.627 38.9523 243.649 41.5558 241.691 43.7456ZM239.042 40.3247C239.94 38.9927 240.389 37.5194 240.389 35.9048C240.389 33.7957 239.678 32.0046 238.255 30.5312C236.832 29.0579 235.112 28.3213 233.093 28.3213C231.015 28.3213 229.274 29.0378 227.871 30.4707C226.468 31.9036 225.767 33.7251 225.767 35.9351C225.767 38.3973 226.65 40.3449 228.416 41.7778C229.799 42.8979 231.368 43.458 233.124 43.458C234.133 43.458 235.081 43.2612 235.969 42.8677L231.988 37.7363H237.044L239.042 40.3247ZM252.967 24.7339H257.221V39.144C257.221 40.3853 257.327 41.2632 257.538 41.7778C257.76 42.2925 258.119 42.7062 258.613 43.019C259.118 43.3218 259.723 43.4731 260.43 43.4731C261.176 43.4731 261.817 43.3016 262.352 42.9585C262.897 42.6154 263.27 42.1815 263.472 41.6567C263.684 41.1219 263.79 40.1077 263.79 38.6143V24.7339H268.043V38.0088C268.043 40.249 267.917 41.8031 267.665 42.6709C267.413 43.5387 266.928 44.3763 266.212 45.1836C265.505 45.9909 264.688 46.5913 263.76 46.9849C262.831 47.3683 261.752 47.5601 260.52 47.5601C258.906 47.5601 257.498 47.1917 256.297 46.4551C255.107 45.7083 254.254 44.7799 253.739 43.6699C253.225 42.5498 252.967 40.6628 252.967 38.0088V24.7339ZM277.473 47V24.7339H280.97C282.998 24.7339 284.481 24.8651 285.42 25.1274C286.752 25.4806 287.811 26.1366 288.598 27.0952C289.386 28.0539 289.779 29.1841 289.779 30.4858C289.779 31.3335 289.597 32.1055 289.234 32.8018C288.881 33.488 288.301 34.1338 287.493 34.7393C288.846 35.375 289.835 36.1722 290.46 37.1309C291.086 38.0794 291.399 39.2046 291.399 40.5063C291.399 41.7576 291.076 42.8979 290.43 43.9272C289.784 44.9565 288.952 45.7285 287.932 46.2432C286.913 46.7477 285.505 47 283.709 47H277.473ZM281.711 28.7754V33.4678H282.635C283.664 33.4678 284.426 33.2508 284.92 32.8169C285.425 32.383 285.677 31.7926 285.677 31.0459C285.677 30.3496 285.44 29.7996 284.966 29.396C284.491 28.9823 283.77 28.7754 282.801 28.7754H281.711ZM281.711 37.252V42.9585H282.771C284.527 42.9585 285.707 42.7365 286.313 42.2925C286.928 41.8485 287.236 41.2026 287.236 40.355C287.236 39.3963 286.878 38.6395 286.161 38.0845C285.445 37.5295 284.254 37.252 282.589 37.252H281.711ZM299.965 24.7339H312.12V28.8813H304.173V32.9077H312.12V36.9795H304.173V42.8374H312.12V47H299.965V24.7339Z" fill="white"/>
<path d="M71.5172 13.5881C66.3667 12.8207 61.1828 12.0484 56.0322 11.281C55.6978 11.2311 55.4775 11.3329 55.271 11.5714C51.9951 15.6608 48.7192 19.7501 45.4099 23.8345L51.9985 24.8161C53.9245 22.4441 55.8171 20.0672 57.7481 17.6623C57.9594 17.3909 58.1748 17.322 58.5093 17.3718C61.4524 17.8103 64.3956 18.2488 67.3722 18.6923C67.5729 18.7222 67.8935 18.6354 68.0183 18.4857C69.267 16.9888 70.4871 15.4541 71.7072 13.9194C71.7505 13.8585 71.7603 13.7926 71.8084 13.6988C71.713 13.651 71.6176 13.6031 71.5172 13.5881ZM71.5172 13.5881C66.3667 12.8207 61.1828 12.0484 56.0322 11.281C55.6978 11.2311 55.4775 11.3329 55.271 11.5714C51.9951 15.6608 48.7192 19.7501 45.4099 23.8345L51.9985 24.8161C53.9245 22.4441 55.8171 20.0672 57.7481 17.6623C57.9594 17.3909 58.1748 17.322 58.5093 17.3718C61.4524 17.8103 64.3956 18.2488 67.3722 18.6923C67.5729 18.7222 67.8935 18.6354 68.0183 18.4857C69.267 16.9888 70.4871 15.4541 71.7072 13.9194C71.7505 13.8585 71.7603 13.7926 71.8084 13.6988C71.713 13.651 71.6176 13.6031 71.5172 13.5881ZM71.5172 13.5881C66.3667 12.8207 61.1828 12.0484 56.0322 11.281C55.6978 11.2311 55.4775 11.3329 55.271 11.5714C51.9951 15.6608 48.7192 19.7501 45.4099 23.8345L51.9985 24.8161C53.9245 22.4441 55.8171 20.0672 57.7481 17.6623C57.9594 17.3909 58.1748 17.322 58.5093 17.3718C61.4524 17.8103 64.3956 18.2488 67.3722 18.6923C67.5729 18.7222 67.8935 18.6354 68.0183 18.4857C69.267 16.9888 70.4871 15.4541 71.7072 13.9194C71.7505 13.8585 71.7603 13.7926 71.8084 13.6988C71.713 13.651 71.6176 13.6031 71.5172 13.5881ZM71.5172 13.5881C66.3667 12.8207 61.1828 12.0484 56.0322 11.281C55.6978 11.2311 55.4775 11.3329 55.271 11.5714C51.9951 15.6608 48.7192 19.7501 45.4099 23.8345L51.9985 24.8161C53.9245 22.4441 55.8171 20.0672 57.7481 17.6623C57.9594 17.3909 58.1748 17.322 58.5093 17.3718C61.4524 17.8103 64.3956 18.2488 67.3722 18.6923C67.5729 18.7222 67.8935 18.6354 68.0183 18.4857C69.267 16.9888 70.4871 15.4541 71.7072 13.9194C71.7505 13.8585 71.7603 13.7926 71.8084 13.6988C71.713 13.651 71.6176 13.6031 71.5172 13.5881ZM95.8496 36.3646C95.0256 34.3234 94.2016 32.2821 93.3775 30.2409C90.3324 22.6854 87.2872 15.13 84.2755 7.57953C84.1239 7.22036 83.9379 7.09168 83.57 7.03687C78.4195 6.26947 73.2356 5.49709 68.085 4.7297C62.968 3.96728 57.8174 3.19989 52.7004 2.43747C52.2321 2.36771 51.945 2.45955 51.652 2.81979C46.4451 9.31403 41.2383 15.8083 35.9646 22.2925C35.5467 22.8025 35.1672 23.2844 34.7494 23.7943C34.2883 24.3651 33.8272 24.9359 33.3661 25.5067C33.1979 25.7173 33.0347 25.8949 32.9 26.1104C32.5638 26.5315 32.3761 26.8738 32.2838 27.2639C32.1865 27.687 32.2565 28.135 32.5174 28.6787C32.5932 28.8583 32.669 29.0379 32.7163 29.1796C32.9624 29.8221 33.2135 30.4316 33.493 31.0791C36.9507 39.5375 40.3365 48.0188 43.7223 56.5001C43.8739 56.8592 44.0215 57.0159 44.4563 57.0806C54.7573 58.6154 65.0918 60.1552 75.4263 61.695C75.8277 61.7548 76.048 61.653 76.2977 61.3536C82.763 53.2967 89.2568 45.2777 95.7506 37.2586C95.9335 36.9493 96.0013 36.7238 95.8496 36.3646ZM43.0233 22.873C46.717 18.2738 50.4442 13.6795 54.1045 9.07526C54.4024 8.6821 54.6896 8.59026 55.1912 8.66501C62.076 9.72445 69.004 10.723 75.8937 11.7495L76.5291 11.8442C75.9864 12.5038 75.482 13.1355 74.9777 13.7671C72.4608 16.8925 69.9439 20.0179 67.427 23.1433C65.9188 25.0053 64.449 26.8394 62.9457 28.6686C62.8208 28.8183 62.5287 28.943 62.3615 28.9181C58.8449 28.4278 55.2997 27.8996 51.7929 27.3435L43.2644 26.0728L43.2693 26.0398C43.1641 26.0578 43.0638 26.0429 42.93 26.0229C42.2325 25.8854 41.5253 25.8136 40.7226 25.6941C41.5534 24.7071 42.2741 23.7711 43.0233 22.873ZM69.586 55.0021C62.5626 53.9556 55.5726 52.9141 48.5826 51.8727C48.2147 51.8179 48.0288 51.6892 47.9057 51.3679C45.2868 44.8521 42.668 38.3362 40.0491 31.8204C39.997 31.7116 39.9783 31.6078 39.8739 31.3904C40.8104 31.5299 41.6465 31.6545 42.5161 31.784C42.6833 31.8089 42.884 31.8388 43.0512 31.8637C45.2585 32.1926 47.4325 32.5165 49.6398 32.8454C50.2753 32.9401 50.9107 33.0348 51.5796 33.1344C52.2151 33.2291 52.8505 33.3238 53.486 33.4185C56.1281 33.8121 58.7703 34.2058 61.4124 34.5995C61.7803 34.6543 61.9328 34.778 62.0845 35.1371C63.8507 39.5738 65.617 44.0105 67.4167 48.4522C68.2408 50.4935 69.0697 52.5018 69.8986 54.5101C69.9794 54.6568 70.0217 54.8314 70.1212 55.0818L69.586 55.0021ZM88.9997 36.2191C84.8114 41.3842 80.6565 46.5542 76.5017 51.7243C76.2038 52.1174 75.8724 52.5056 75.5362 52.9267C75.0104 51.6367 74.5369 50.4555 74.0348 49.2363C72.2163 44.6909 70.393 40.1784 68.5746 35.6329C68.229 34.74 67.85 33.8421 67.5044 32.9492C67.3764 32.6608 67.4058 32.4633 67.5789 32.2198C71.3061 27.6255 74.9998 23.0263 78.6886 18.4599C79.486 17.468 80.2833 16.4761 81.1239 15.4234C81.6969 16.855 82.2463 18.2159 82.8006 19.5438C84.9222 24.8076 87.0105 30.0663 89.1656 35.3351C89.2788 35.7222 89.2445 35.9527 88.9997 36.2191ZM57.7815 17.6673C57.9929 17.3958 58.2083 17.327 58.5427 17.3768C61.4859 17.8153 64.429 18.2538 67.4056 18.6973C67.6063 18.7272 67.9269 18.6404 68.0518 18.4907C69.3004 16.9938 70.5205 15.4591 71.7406 13.9243C71.7839 13.8635 71.7937 13.7976 71.8419 13.7038C71.713 13.651 71.6127 13.636 71.4789 13.6161C66.3284 12.8487 61.1444 12.0763 55.9939 11.3089C55.6594 11.2591 55.4391 11.3609 55.2327 11.5994C51.9568 15.6887 48.6809 19.778 45.3715 23.8624L51.9602 24.8441C53.9629 22.4162 55.8889 20.0442 57.7815 17.6673ZM71.5172 13.5881C66.3667 12.8207 61.1828 12.0484 56.0322 11.281C55.6978 11.2311 55.4775 11.3329 55.271 11.5714C51.9951 15.6608 48.7192 19.7501 45.4099 23.8345L51.9985 24.8161C53.9245 22.4441 55.8171 20.0672 57.7481 17.6623C57.9594 17.3909 58.1748 17.322 58.5093 17.3718C61.4524 17.8103 64.3956 18.2488 67.3722 18.6923C67.5729 18.7222 67.8935 18.6354 68.0183 18.4857C69.267 16.9888 70.4871 15.4541 71.7072 13.9194C71.7505 13.8585 71.7603 13.7926 71.8084 13.6988C71.713 13.651 71.6176 13.6031 71.5172 13.5881ZM71.5172 13.5881C66.3667 12.8207 61.1828 12.0484 56.0322 11.281C55.6978 11.2311 55.4775 11.3329 55.271 11.5714C51.9951 15.6608 48.7192 19.7501 45.4099 23.8345L51.9985 24.8161C53.9245 22.4441 55.8171 20.0672 57.7481 17.6623C57.9594 17.3909 58.1748 17.322 58.5093 17.3718C61.4524 17.8103 64.3956 18.2488 67.3722 18.6923C67.5729 18.7222 67.8935 18.6354 68.0183 18.4857C69.267 16.9888 70.4871 15.4541 71.7072 13.9194C71.7505 13.8585 71.7603 13.7926 71.8084 13.6988C71.713 13.651 71.6176 13.6031 71.5172 13.5881ZM71.5172 13.5881C66.3667 12.8207 61.1828 12.0484 56.0322 11.281C55.6978 11.2311 55.4775 11.3329 55.271 11.5714C51.9951 15.6608 48.7192 19.7501 45.4099 23.8345L51.9985 24.8161C53.9245 22.4441 55.8171 20.0672 57.7481 17.6623C57.9594 17.3909 58.1748 17.322 58.5093 17.3718C61.4524 17.8103 64.3956 18.2488 67.3722 18.6923C67.5729 18.7222 67.8935 18.6354 68.0183 18.4857C69.267 16.9888 70.4871 15.4541 71.7072 13.9194C71.7505 13.8585 71.7603 13.7926 71.8084 13.6988C71.713 13.651 71.6176 13.6031 71.5172 13.5881ZM71.5172 13.5881C66.3667 12.8207 61.1828 12.0484 56.0322 11.281C55.6978 11.2311 55.4775 11.3329 55.271 11.5714C51.9951 15.6608 48.7192 19.7501 45.4099 23.8345L51.9985 24.8161C53.9245 22.4441 55.8171 20.0672 57.7481 17.6623C57.9594 17.3909 58.1748 17.322 58.5093 17.3718C61.4524 17.8103 64.3956 18.2488 67.3722 18.6923C67.5729 18.7222 67.8935 18.6354 68.0183 18.4857C69.267 16.9888 70.4871 15.4541 71.7072 13.9194C71.7505 13.8585 71.7603 13.7926 71.8084 13.6988C71.713 13.651 71.6176 13.6031 71.5172 13.5881ZM71.5172 13.5881C66.3667 12.8207 61.1828 12.0484 56.0322 11.281C55.6978 11.2311 55.4775 11.3329 55.271 11.5714C51.9951 15.6608 48.7192 19.7501 45.4099 23.8345L51.9985 24.8161C53.9245 22.4441 55.8171 20.0672 57.7481 17.6623C57.9594 17.3909 58.1748 17.322 58.5093 17.3718C61.4524 17.8103 64.3956 18.2488 67.3722 18.6923C67.5729 18.7222 67.8935 18.6354 68.0183 18.4857C69.267 16.9888 70.4871 15.4541 71.7072 13.9194C71.7505 13.8585 71.7603 13.7926 71.8084 13.6988C71.713 13.651 71.6176 13.6031 71.5172 13.5881Z" fill="#7D54F0"/>
<path d="M66.1533 51.9568C65.9527 51.9269 65.814 51.9399 65.6468 51.915C60.5631 51.1576 55.4795 50.4001 50.3959 49.6427C50.0614 49.5929 49.8322 49.5251 49.6806 49.1659C47.7913 44.4079 45.8685 39.645 43.9457 34.8821C43.8935 34.7733 43.8699 34.7025 43.8275 34.5279C43.8324 34.495 43.799 34.49 43.8039 34.4571C44.0764 34.464 44.2485 34.456 44.4157 34.4809C46.2552 34.755 48.0563 35.057 49.9007 35.2981C50.1014 35.328 50.2637 35.3859 50.3827 35.5046C50.4733 35.5854 50.5254 35.6941 50.5727 35.8358C51.6193 38.4487 52.6707 41.0287 53.6838 43.6367C53.9349 44.2463 54.2399 44.4937 54.8754 44.5883C57.7231 44.979 60.5325 45.3976 63.3704 45.854C63.571 45.8839 63.8475 46.0934 63.9233 46.273C64.6814 48.0688 65.3676 49.8876 66.0922 51.6784C66.1493 51.7543 66.1395 51.8201 66.1533 51.9568Z" fill="#7D54F0"/>
<path fill-rule="evenodd" clip-rule="evenodd" d="M51.6182 33.1097C50.9673 33.0317 50.3326 32.9371 49.6844 32.8406C47.4833 32.5126 45.2822 32.1847 43.0946 31.8587L43.0974 31.8401L51.6182 33.1097Z" fill="#7D54F0"/>
<path fill-rule="evenodd" clip-rule="evenodd" d="M37.3079 27.344C37.4181 26.8234 37.0786 26.3164 36.5593 26.2065L5.34335 19.6026C4.8241 19.4927 4.30837 19.8188 4.19822 20.3394C4.08808 20.8601 4.42757 21.3671 4.94682 21.4769L36.1628 28.0809C36.682 28.1907 37.1978 27.8647 37.3079 27.344Z" fill="#7D54F0"/>
<path fill-rule="evenodd" clip-rule="evenodd" d="M39.73 31.5331C39.8269 31.0751 39.5269 30.6288 39.0826 30.5348L16.6695 25.7931C16.2031 25.6945 15.7701 25.9857 15.6732 26.4438C15.5763 26.9018 15.8764 27.3481 16.3207 27.4421L38.7337 32.1837C39.178 32.2777 39.6331 31.9912 39.73 31.5331Z" fill="#7D54F0"/>
<path fill-rule="evenodd" clip-rule="evenodd" d="M39.55 23.9367C39.6486 23.4709 39.3482 23.018 38.8931 22.9217L13.1796 17.4819C12.7245 17.3856 12.2664 17.678 12.1678 18.1438C12.0693 18.6096 12.3697 19.0625 12.8248 19.1588L38.5383 24.5986C38.9934 24.6949 39.4515 24.4025 39.55 23.9367Z" fill="#7D54F0"/>
</g>
<defs>
<filter id="filter0_d_50_2" x="0" y="0" width="316.12" height="72.1429" filterUnits="userSpaceOnUse" color-interpolation-filters="sRGB">
<feFlood flood-opacity="0" result="BackgroundImageFix"/>
<feColorMatrix in="SourceAlpha" type="matrix" values="0 0 0 0 0 0 0 0 0 0 0 0 0 0 0 0 0 0 127 0" result="hardAlpha"/>
<feOffset dy="4"/>
<feGaussianBlur stdDeviation="2"/>
<feComposite in2="hardAlpha" operator="out"/>
<feColorMatrix type="matrix" values="0 0 0 0 0 0 0 0 0 0 0 0 0 0 0 0 0 0 0.25 0"/>
<feBlend mode="normal" in2="BackgroundImageFix" result="effect1_dropShadow_50_2"/>
<feBlend mode="normal" in="SourceGraphic" in2="effect1_dropShadow_50_2" result="shape"/>
</filter>
</defs>
</svg>
